<?xml version="1.0" standalone="no"?>
<!DOCTYPE svg PUBLIC "-//W3C//DTD SVG 20010904//EN"
 "http://www.w3.org/TR/2001/REC-SVG-20010904/DTD/svg10.dtd">
<svg version="1.0" xmlns="http://www.w3.org/2000/svg"
 width="743.000000pt" height="743.000000pt" viewBox="0 0 743.000000 743.000000"
 preserveAspectRatio="xMidYMid meet">
<rect width="100%" height="100%" fill="#ffffff"/>
<g transform="translate(0.000000,743.000000) scale(0.100000,-0.100000)"
fill="#000000" stroke="none">
<path d="M3640 5374 c-145 -39 -684 -182 -1115 -295 -165 -43 -356 -94 -425
-113 -69 -19 -233 -63 -365 -97 -132 -34 -312 -81 -400 -104 -88 -23 -221 -57
-295 -76 -197 -49 -175 -49 490 2 160 12 316 32 460 59 339 64 485 91 565 105
151 27 440 82 843 161 l383 76 402 -77 c1028 -195 1249 -237 1342 -255 204
-40 278 -48 772 -91 365 -31 374 -26 88 49 -132 34 -298 78 -370 97 -71 20
-218 58 -325 86 -107 28 -305 80 -440 116 -135 36 -254 68 -265 70 -20 5 -319
85 -891 237 -177 47 -323 86 -325 85 -2 0 -60 -16 -129 -35z"/>
<path d="M930 3470 l0 -1020 345 0 345 0 -2 585 c-2 322 -1 585 2 585 5 -1
213 -307 470 -692 58 -87 108 -157 111 -158 7 0 361 529 490 732 41 64 76 117
79 117 3 1 4 -262 2 -584 l-2 -585 350 0 350 0 -2 1018 -3 1017 -377 3 -377 2
-67 -97 c-238 -347 -433 -623 -439 -623 -2 0 -71 96 -153 213 -82 116 -196
278 -253 360 l-104 147 -382 0 -383 0 0 -1020z"/>
<path d="M3646 4424 c-4 -36 -6 -141 -6 -235 l2 -169 314 0 314 0 0 -785 0
-785 360 0 360 0 0 785 0 785 310 0 310 0 0 235 0 235 -979 0 -978 0 -7 -66z"/>
<path d="M5850 3470 l0 -1020 365 0 365 0 0 1020 0 1020 -365 0 -365 0 0
-1020z"/>
</g>
</svg>
